HIERARCHY
ROOT root
{
	OFFSET	0	13.1	24.9
	CHANNELS 6  Xposition Yposition Zposition Xrotation Yrotation Zrotation
	JOINT spine_1
	{
		OFFSET	0	9.99999	0
		CHANNELS 3  Xrotation Yrotation Zrotation
		JOINT spine_2
		{
			OFFSET	0	112	-10
			CHANNELS 3  Xrotation Yrotation Zrotation
			JOINT spine_3
			{
				OFFSET	0	206.5	19.3
				CHANNELS 3  Xrotation Yrotation Zrotation
				JOINT spine_4
				{
					OFFSET	0	110.4	14.6
					CHANNELS 3  Xrotation Yrotation Zrotation
					JOINT neck_1
					{
						OFFSET	0	71.8	-50.3
						CHANNELS 3  Xrotation Yrotation Zrotation
						JOINT neck_2
						{
							OFFSET	0	86.2	-25.8
							CHANNELS 3  Xrotation Yrotation Zrotation
							JOINT head_ee
							{
								OFFSET	0	179.8	-8.7
								CHANNELS 3  Xrotation Yrotation Zrotation
								End Site
								{
									OFFSET	1	0	0
								}
							}
						}
					}
					JOINT left_clavicle
					{
						OFFSET	-43.2	22.4	-70.8
						CHANNELS 3  Xrotation Yrotation Zrotation
						JOINT left_shoulder
						{
							OFFSET	-93.9	-5.79999	48.7
							CHANNELS 3  Xrotation Yrotation Zrotation
							JOINT left_elbow
							{
								OFFSET	-291.4	-30.8	15.2
								CHANNELS 3  Xrotation Yrotation Zrotation
								JOINT left_lowarm_twist
								{
									OFFSET	-110.7	-3.89999	13.6
									CHANNELS 3  Xrotation Yrotation Zrotation
									JOINT left_hand
									{
										OFFSET	-110.7	-3.89999	13.6
										CHANNELS 3  Xrotation Yrotation Zrotation
										JOINT left_ee
										{
											OFFSET	-80.8	-5.10001	12.1
											CHANNELS 3  Xrotation Yrotation Zrotation
											End Site
											{
												OFFSET	1	0	0
											}
										}
									}
								}
							}
						}
					}
					JOINT right_clavicle
					{
						OFFSET	43.2	22.4	-70.8
						CHANNELS 3  Xrotation Yrotation Zrotation
						JOINT right_shoulder
						{
							OFFSET	93.9	-5.79999	48.7
							CHANNELS 3  Xrotation Yrotation Zrotation
							JOINT right_elbow
							{
								OFFSET	291.4	-30.8	15.2
								CHANNELS 3  Xrotation Yrotation Zrotation
								JOINT right_lowarm_twist
								{
									OFFSET	110.7	-3.89999	13.6
									CHANNELS 3  Xrotation Yrotation Zrotation
									JOINT right_hand
									{
										OFFSET	110.7	-3.89999	13.6
										CHANNELS 3  Xrotation Yrotation Zrotation
										JOINT right_ee
										{
											OFFSET	80.8	-5.10001	12.1
											CHANNELS 3  Xrotation Yrotation Zrotation
											End Site
											{
												OFFSET	1	0	0
											}
										}
									}
								}
							}
						}
					}
				}
			}
		}
	}
	JOINT left_hip
	{
		OFFSET	-82.8	-127.5	0.300001
		CHANNELS 3  Xrotation Yrotation Zrotation
		JOINT left_knee
		{
			OFFSET	-28.2	-396.7	2.2
			CHANNELS 3  Xrotation Yrotation Zrotation
			JOINT left_ankle
			{
				OFFSET	-11.7	-411.3	35.4
				CHANNELS 3  Xrotation Yrotation Zrotation
				JOINT left_toes
				{
					OFFSET	0	-60	-88.6
					CHANNELS 3  Xrotation Yrotation Zrotation
					JOINT left_foot_ee
					{
						OFFSET	-22.5	-16.5	-42.2
						CHANNELS 3  Xrotation Yrotation Zrotation
						End Site
						{
							OFFSET	1	0	0
						}
					}
				}
			}
		}
	}
	JOINT right_hip
	{
		OFFSET	82.8	-127.5	0.300001
		CHANNELS 3  Xrotation Yrotation Zrotation
		JOINT right_knee
		{
			OFFSET	28.2	-396.7	2.2
			CHANNELS 3  Xrotation Yrotation Zrotation
			JOINT right_ankle
			{
				OFFSET	11.7	-411.3	35.4
				CHANNELS 3  Xrotation Yrotation Zrotation
				JOINT right_toes
				{
					OFFSET	0	-60	-88.6
					CHANNELS 3  Xrotation Yrotation Zrotation
					JOINT right_foot_ee
					{
						OFFSET	22.5	-16.5	-42.2
						CHANNELS 3  Xrotation Yrotation Zrotation
						End Site
						{
							OFFSET	1	0	0
						}
					}
				}
			}
		}
	}
}
MOTION
Frames: 6
Frame Time: 0.02
3345.3 695.042 -814.67 -27.4422 57.6958 20.1242 0.871515 0.161068 2.2932 0.87444 0.0148586 2.2988 0.875709 -0.434396 2.25745 0.868605 -0.0725201 2.2977 5.72504 0.636665 0.659576 5.72609 0.503441 0.788102 -0.0 0.0 -0.0 -0.22555 11.861 1.02299 -4.82513 -41.314 47.2039 4.00406 -63.2264 2.46521 -6.67534 -0.28247 0.80476 -1.57475 2.67876 -9.34864 -0.0 0.0 -0.0 7.06266 13.6374 -13.3464 -26.689 19.3986 -73.5631 0.329683 9.27559 -0.0267446 6.37131 -0.180516 0.793413 1.51409 -14.4729 -15.5558 0.0 0.0 0.0 0.469773 -5.6768 9.14646 -17.7317 0.315742 2.69192 37.1588 24.1496 -4.86154 4.1308 -0.0 -0.0 -0.0 0.0 -0.0 42.6792 27.03 3.20926 5.82658 0.2834 0.848569 -13.9742 1.30513 -2.1253 -17.7215 0.0 0.0 0.0 0.0 0.0 
3325.27 694.427 -821.369 -27.6992 58.1698 19.5072 0.985132 0.263232 2.33773 0.988165 0.113985 2.34973 0.993539 -0.34227 2.32748 0.98598 0.0295017 2.35231 4.95906 1.36333 -0.247352 4.96755 2.55439 -0.213543 -0.0 0.0 -0.0 -0.633894 10.925 0.213548 -6.54139 -41.1396 47.2566 4.09361 -63.7319 2.54534 -5.98968 -0.24915 0.72366 -1.36045 2.29719 -8.08522 -0.0 0.0 -0.0 7.09226 12.6746 -13.461 -26.4322 19.7033 -72.6208 0.293405 8.26989 -0.0212114 5.80481 -0.168055 0.72212 1.02338 -15.4457 -12.739 0.0 0.0 0.0 -0.644716 -5.2306 8.28645 -16.6815 0.320387 2.53087 36.7307 24.1601 -4.81832 3.16539 -0.0 -0.0 -0.0 0.0 -0.0 42.5018 27.737 2.80765 1.90334 0.0830453 0.280245 -13.6426 1.72732 -2.07695 -17.2599 0.0 0.0 0.0 0.0 0.0 
3306.27 691.75 -834.66 -27.4101 58.4077 19.1819 1.02932 0.33074 2.35526 1.03239 0.180242 2.37152 1.04058 -0.279481 2.36189 1.03281 0.0969339 2.37638 4.43357 1.89625 -0.896901 4.45797 4.04535 -0.912234 -0.0 0.0 -0.0 -0.903962 10.2723 -0.336826 -7.73796 -40.9767 47.3375 4.11793 -63.8661 2.56716 -5.50979 -0.22641 0.666667 -1.21127 2.05283 -7.19646 -0.0 0.0 -0.0 7.10895 11.9681 -13.5316 -26.2481 19.9256 -71.951 0.271957 7.67285 -0.0182371 5.40818 -0.15891 0.67228 0.67595 -16.0916 -10.7764 0.0 0.0 0.0 -1.52493 -4.91834 7.68823 -15.9596 0.321869 2.42012 36.4608 24.1592 -4.79066 2.48993 -0.0 -0.0 -0.0 0.0 -0.0 42.3724 28.2297 2.55538 -0.845949 -0.0339071 -0.125392 -13.4175 2.01938 -2.04417 -16.9383 0.0 0.0 0.0 0.0 0.0 
3283.05 690.436 -852.256 -28.1698 58.7342 19.6426 1.24624 0.363788 2.37713 1.24936 0.211833 2.39544 1.2588 -0.243945 2.39239 1.25084 0.136837 2.40089 4.0432 2.30606 -1.34567 4.08408 5.14811 -1.38276 -0.0 0.0 -0.0 -0.95141 9.79366 -0.485121 -8.3833 -40.9071 47.6007 4.09804 -63.7565 2.54931 -5.16425 -0.210332 0.625514 -1.10827 1.90651 -6.57289 -0.0 0.0 -0.0 7.14225 11.4539 -13.6268 -26.0771 20.0817 -71.4623 0.260506 7.35339 -0.0167398 5.14581 -0.152671 0.639345 0.430757 -16.5469 -9.41239 0.0 0.0 0.0 -2.91467 -4.72081 7.22627 -15.8829 0.321944 2.40835 36.271 24.1705 -4.77146 2.0164 -0.0 -0.0 -0.0 0.0 -0.0 42.3102 28.5723 2.3635 -2.76992 -0.104096 -0.412307 -13.2661 2.1854 -2.02192 -16.715 0.0 0.0 0.0 0.0 0.0 
3253.91 694.296 -875.828 -27.9797 58.9128 19.2148 1.06781 0.377852 2.33471 1.07081 0.228565 2.35401 1.08093 -0.226988 2.35416 1.07323 0.147549 2.36046 2.92764 2.87445 -2.27706 3.00429 6.95177 -2.33389 -0.0 0.0 -0.0 -1.12221 11.7924 -0.494092 -10.7432 -39.3971 47.5478 3.73086 -61.5668 2.22308 -5.38 -0.220341 0.651221 -1.00187 1.42202 -6.07656 -0.0 0.0 -0.0 7.34112 10.6425 -14.0853 -25.4613 20.3491 -71.3872 0.294856 8.3102 -0.0214205 4.97348 -0.148491 0.617728 0.301539 -15.9916 -8.40088 0.0 0.0 0.0 -4.47966 -4.80988 7.22648 -16.638 0.320516 2.52419 36.072 23.7486 -4.73932 1.68443 -0.0 -0.0 -0.0 0.0 -0.0 42.1345 28.8299 2.19112 -4.64587 -0.16321 -0.694127 -13.1377 2.98608 -2.0077 -16.5589 0.0 0.0 0.0 0.0 0.0 
3231.4 698.908 -889.967 -28.3093 58.7603 19.5098 1.30264 0.407665 2.43015 1.30589 0.25225 2.45115 1.31727 -0.21223 2.45494 1.30891 0.178025 2.45765 3.36427 3.47341 -2.8229 3.48293 8.45296 -2.93667 -0.0 0.0 -0.0 -1.16819 13.1145 -0.380049 -12.4177 -38.3189 48.0289 3.50079 -60.0158 2.02224 -5.41416 -0.221935 0.655288 -0.905104 2.24101 -5.06907 -0.0 0.0 -0.0 7.50839 9.80432 -14.4726 -24.772 20.6285 -71.0652 0.324408 9.1297 -0.025901 4.38541 -0.133739 0.544055 0.135682 -15.6163 -7.22561 0.0 0.0 0.0 -5.61079 -4.87857 7.23294 -17.3614 0.317717 2.63514 35.0811 23.3009 -4.62456 1.26997 -0.0 -0.0 -0.0 0.0 -0.0 41.6705 28.8485 1.62598 -6.97631 -0.223737 -1.04662 -13.0054 3.88745 -1.99395 -15.7974 0.0 0.0 0.0 0.0 0.0 
